<?xml version="1.0" ?>

<!-- Uploaded to: SVG Repo, www.svgrepo.com, Generator: SVG Repo Mixer Tools -->
<svg width="800px" height="800px" viewBox="0 0 32 32" id="Layer_1" version="1.1" xml:space="preserve" xmlns="http://www.w3.org/2000/svg" xmlns:xlink="http://www.w3.org/1999/xlink">

<style type="text/css">
	.st0{fill:#00BBB4;}
	.st1{fill:#1B75BC;}
	.st2{fill:#F15A29;}
</style>

<g>

<g>

<path class="st1" d="M21.3276367,13.1967773c-0.5522461,0-1-0.4477539-1-1V6.8276367C20.3276367,4.4414063,18.3862305,2.5,16,2.5    s-4.3276367,1.9414063-4.3276367,4.3276367v5.3691406c0,0.5522461-0.4477539,1-1,1s-1-0.4477539-1-1V6.8276367    C9.6723633,3.3383789,12.5107422,0.5,16,0.5s6.3276367,2.8383789,6.3276367,6.3276367v5.3691406    C22.3276367,12.7490234,21.8798828,13.1967773,21.3276367,13.1967773z"/>

</g>

<g>

<polygon class="st2" points="5,31.5 27,31.5 26.4822388,26.5 5.5177612,26.5   "/>

</g>

<g>

<polygon class="st0" points="26.2751465,24.5 24.555542,7.8934326 7.444458,7.8934326 5.7248535,24.5   "/>

</g>

</g>

</svg>